<svg xmlns="http://www.w3.org/2000/svg" viewBox="0 0 100 100" width="100px" height="100px"><path d="M 73.443359 14.001953 C 73.075297 14.013891 72.706844 14.061484 72.339844 14.146484 L 20.517578 26.177734 C 19.046578 26.518734 17.794187 27.418891 16.992188 28.712891 C 16.422187 29.631891 16.134859 30.671375 16.130859 31.734375 C 16.130859 31.745375 16.125 31.754625 16.125 31.765625 L 16.125 76.234375 C 16.125 79.413375 18.699281 81.998047 21.863281 81.998047 L 78.261719 81.998047 C 81.426719 81.999047 84 79.413375 84 76.234375 L 84 41.382812 C 84 40.256813 83.683031 39.163656 83.082031 38.222656 C 82.694031 37.614656 82.202141 37.087203 81.619141 36.658203 C 81.330141 36.445203 81.019359 36.258563 80.693359 36.101562 C 80.070359 35.802563 79.406797 35.619641 78.716797 35.556641 C 78.644797 35.539641 78.568234 35.53125 78.490234 35.53125 L 58.173828 35.53125 L 76.269531 31.242188 C 79.297531 30.538187 81.194094 27.492219 80.496094 24.449219 L 79.105469 18.394531 C 78.764469 16.911531 77.873797 15.654516 76.591797 14.853516 C 75.637797 14.256516 74.547547 13.966141 73.443359 14.001953 z M 73.503906 16.001953 C 74.214672 15.978609 74.91625 16.164078 75.53125 16.548828 C 76.35825 17.065828 76.93525 17.880797 77.15625 18.841797 L 78.546875 24.896484 C 78.998875 26.867484 77.775453 28.839922 75.814453 29.294922 L 49.519531 35.527344 L 49.521484 35.53125 L 21.863281 35.53125 C 20.082281 35.53125 18.593703 34.269891 18.220703 32.587891 C 18.195703 32.471891 18.186875 32.354281 18.171875 32.238281 C 18.154875 32.106281 18.135813 31.975844 18.132812 31.839844 C 18.118813 31.110844 18.303406 30.395531 18.691406 29.769531 C 19.212406 28.929531 20.020703 28.346 20.970703 28.125 L 72.792969 16.095703 C 73.028719 16.040953 73.266984 16.009734 73.503906 16.001953 z M 18.125 36.136719 C 19.13 37.005719 20.437281 37.53125 21.863281 37.53125 L 59.875 37.53125 L 59.875 44.25 C 59.875 44.526 60.099 44.75 60.375 44.75 C 60.651 44.75 60.875 44.526 60.875 44.25 L 60.875 37.53125 L 78.345703 37.53125 C 78.372703 37.53525 78.400734 37.539016 78.427734 37.541016 C 78.917734 37.572016 79.389125 37.69525 79.828125 37.90625 C 80.042125 38.00925 80.244594 38.130531 80.433594 38.269531 C 80.816594 38.551531 81.141484 38.898828 81.396484 39.298828 C 81.791484 39.918828 82 40.637813 82 41.382812 L 82 50.498047 L 72.75 50.498047 C 72.474 50.498047 72.25 50.722047 72.25 50.998047 C 72.25 51.274047 72.474 51.498047 72.75 51.498047 L 82 51.498047 L 82 64.890625 L 78.25 64.890625 C 77.974 64.890625 77.75 65.114625 77.75 65.390625 C 77.75 65.666625 77.974 65.890625 78.25 65.890625 L 82 65.890625 L 82 76.234375 C 82 78.310375 80.322719 80 78.261719 80 L 21.863281 80 C 19.801281 80 18.125 78.310375 18.125 76.234375 L 18.125 64.300781 C 19.077 65.277781 20.398281 65.890625 21.863281 65.890625 L 53.5 65.890625 C 53.776 65.890625 54 65.666625 54 65.390625 C 54 65.114625 53.776 64.890625 53.5 64.890625 L 21.863281 64.890625 C 20.235281 64.890625 18.834 63.950797 18.125 62.591797 L 18.125 49.910156 C 19.076 50.887156 20.399281 51.496094 21.863281 51.496094 L 25.75 51.496094 C 26.026 51.496094 26.25 51.272094 26.25 50.996094 C 26.25 50.720094 26.026 50.496094 25.75 50.496094 L 21.863281 50.496094 C 20.235281 50.496094 18.834 49.558219 18.125 48.199219 L 18.125 36.136719 z M 30.5 50.498047 C 30.224 50.498047 30 50.722047 30 50.998047 C 30 51.274047 30.224 51.498047 30.5 51.498047 L 39.25 51.498047 L 39.25 63.125 C 39.25 63.401 39.474 63.625 39.75 63.625 C 40.026 63.625 40.25 63.401 40.25 63.125 L 40.25 51.498047 L 65.375 51.498047 C 65.651 51.498047 65.875 51.274047 65.875 50.998047 C 65.875 50.722047 65.651 50.498047 65.375 50.498047 L 30.5 50.498047 z M 68.5 50.498047 C 68.224 50.498047 68 50.722047 68 50.998047 C 68 51.274047 68.223047 51.497047 68.498047 51.498047 L 70.623047 51.5 L 70.625 51.5 C 70.9 51.5 71.125 51.276 71.125 51 C 71.125 50.724 70.901953 50.5 70.626953 50.5 L 68.501953 50.498047 L 68.5 50.498047 z M 56.75 64.890625 C 56.474 64.890625 56.25 65.114625 56.25 65.390625 C 56.25 65.666625 56.474 65.890625 56.75 65.890625 L 72.375 65.890625 C 72.651 65.890625 72.875 65.666625 72.875 65.390625 C 72.875 65.114625 72.651 64.890625 72.375 64.890625 L 56.75 64.890625 z"/></svg>