
<svg version="1.0" xmlns="http://www.w3.org/2000/svg"
 width="1890.000000pt" height="1417.000000pt" viewBox="0 0 1890.000000 1417.000000"
 preserveAspectRatio="xMidYMid meet">

<g transform="translate(0.000000,1417.000000) scale(0.100000,-0.100000)"
fill="#000000" stroke="none">
<path d="M8622 8839 c-11 -11 -22 -38 -26 -60 l-6 -39 -35 35 c-66 65 -108 33
-103 -77 2 -34 7 -69 12 -76 4 -7 6 -22 5 -35 -1 -12 1 -29 4 -37 4 -8 8 -37
9 -65 2 -27 6 -52 9 -55 3 -3 18 -70 33 -149 l27 -144 -24 -21 c-49 -43 -59
-72 -55 -161 3 -72 6 -87 27 -109 25 -26 25 -27 9 -74 -35 -101 -31 -145 17
-216 27 -39 32 -62 14 -68 -34 -11 -31 -168 5 -221 31 -46 135 -97 196 -97 59
0 155 34 194 69 58 53 74 156 36 232 l-21 40 26 54 c14 30 25 72 25 95 0 49
-19 130 -30 130 -17 0 -16 36 2 73 42 85 12 204 -63 254 -30 20 -39 32 -39 53
0 16 18 131 39 257 66 384 66 381 25 397 -33 13 -60 -20 -94 -116 -18 -51 -42
-113 -53 -138 l-21 -45 -10 52 c-6 28 -14 55 -18 59 -5 4 -8 26 -8 49 0 22 -4
45 -8 51 -5 5 -14 35 -21 67 -11 50 -15 57 -36 57 -13 0 -33 -9 -43 -21z m56
-6 c10 -19 72 -319 72 -348 0 -9 -7 -42 -16 -72 -21 -74 -31 -63 -89 107 -44
128 -46 139 -40 210 6 77 24 120 50 120 8 0 18 -8 23 -17z m260 -25 c17 -17
15 -57 -13 -219 -13 -79 -33 -198 -44 -264 -12 -66 -23 -130 -26 -141 -5 -21
-9 -22 -108 -17 -69 4 -116 2 -141 -7 -21 -6 -39 -10 -41 -8 -8 7 -66 323 -85
461 -15 108 -18 152 -10 167 30 55 94 -18 114 -130 6 -35 47 -150 86 -243 25
-62 31 -85 25 -115 -15 -84 17 -5 100 245 90 273 108 306 143 271z m-110 -663
c28 -9 65 -28 83 -42 85 -72 94 -229 14 -267 -62 -30 -115 -13 -177 57 l-37
42 2 -29 c4 -60 -113 -105 -176 -69 -44 26 -57 56 -57 136 0 71 21 120 65 148
58 37 199 49 283 24z m-67 -291 c24 -29 70 -45 118 -43 58 3 68 -3 92 -55 23
-50 24 -114 4 -163 -25 -60 -41 -72 -80 -62 -39 11 -79 -1 -115 -36 l-25 -24
-44 29 c-34 23 -55 30 -93 30 -53 0 -64 7 -97 61 -27 44 -28 131 -2 179 17 33
23 35 81 42 44 5 71 14 94 32 37 30 49 31 67 10z m-86 -348 c40 -17 68 -56 60
-82 -5 -14 -2 -13 12 5 10 13 33 40 52 59 32 31 39 34 80 29 57 -6 87 -39 97
-104 8 -54 -8 -128 -34 -157 -25 -28 -118 -65 -178 -72 -48 -6 -62 -3 -119 25
-76 38 -103 71 -114 143 -12 75 -4 114 31 143 34 28 64 31 113 11z"/>
<path d="M8827 7755 c-20 -14 -37 -32 -37 -40 0 -25 113 -145 125 -133 2 2
-21 29 -51 61 -30 31 -54 63 -54 70 0 7 19 25 42 40 23 15 35 27 27 27 -8 0
-31 -11 -52 -25z"/>
<path d="M8600 7740 c0 -5 13 -10 29 -10 16 0 34 -7 41 -15 7 -8 18 -15 24
-15 6 0 -2 12 -17 25 -28 25 -77 34 -77 15z"/>
<path d="M8655 7646 c-17 -13 -42 -26 -55 -28 -18 -2 -26 -10 -29 -28 l-3 -25
21 25 c11 14 20 22 21 17 0 -11 52 18 74 42 26 28 8 26 -29 -3z"/>
</g>
</svg>
